<svg width="139" height="139" viewBox="0 0 139 139" fill="none" xmlns="http://www.w3.org/2000/svg">
<path d="M33.6562 118.466C35.0783 118.028 36.6204 118.231 37.881 119.022C47.1655 124.843 57.8987 127.976 69.1068 127.976C101.619 127.976 127.976 101.619 127.976 69.1068C127.976 36.5945 101.619 10.2381 69.1068 10.2381C36.5945 10.2381 10.2381 36.5945 10.2381 69.1068C10.2381 80.6442 13.5579 91.6763 19.7054 101.137C20.5135 102.38 20.7425 103.913 20.3332 105.339C19.5512 108.062 18.4752 111.898 17.1805 116.567C17.1247 116.768 17.1247 116.768 17.0689 116.97C16.4261 119.289 15.7561 121.717 15.0779 124.182L33.6562 118.466ZM9.18397 136.708C5.32763 137.894 1.67833 134.361 2.73986 130.468C2.8093 130.213 2.8093 130.213 3.12117 129.072C3.42444 127.962 3.76284 126.726 4.12786 125.395C5.17086 121.591 6.21842 117.787 7.20274 114.235C7.25872 114.033 7.25872 114.033 7.31472 113.831C8.30135 110.273 9.16221 107.194 9.86619 104.711C3.45115 94.0599 0 81.8336 0 69.1068C0 30.9402 30.9402 0 69.1068 0C107.273 0 138.214 30.9402 138.214 69.1068C138.214 107.273 107.273 138.214 69.1068 138.214C56.7716 138.214 44.9034 134.972 34.479 128.924L9.18397 136.708ZM80.4176 81.6974C81.0981 81.0169 81.8371 80.1958 82.611 79.2672C83.5776 78.1073 84.5427 76.8484 85.4531 75.5879C85.9978 74.8337 86.397 74.2555 86.6034 73.9459C86.7904 73.6654 87.0046 73.404 87.243 73.1657C87.683 72.7257 88.2622 72.2913 89 71.9224C91.2943 70.7752 94.1282 70.7752 96.9913 72.2068C97.9415 72.6819 108.96 79.8459 113.825 82.5486C115.718 83.6002 116.744 85.7291 116.388 87.865C115.232 94.801 113.224 100.056 108.72 104.56C102.483 110.797 92.939 113.243 79.8653 111.282C55.6659 107.652 34.8514 86.445 25.9363 63.2659C22.0585 53.1837 23.9579 43.2649 29.33 34.3113C31.3211 30.9928 33.3302 28.5373 34.773 27.0945C35.4876 26.3798 36.3978 25.8927 37.3888 25.6945C37.8306 25.6062 38.525 25.4836 39.3751 25.3622C40.2679 25.2346 41.1503 25.1366 42.002 25.0798C45.4855 24.8476 47.6889 25.0924 49.6909 27.0945C52.2208 29.6244 60.1485 44.87 60.1485 48.6307C60.1485 52.5818 58.4155 55.934 54.1077 60.5675C55.3282 63.8498 59.5981 68.8524 65.7992 73.9511C69.017 76.5968 72.5218 79.0875 75.585 80.9494C76.9521 81.7804 78.1588 82.4403 79.0807 82.8688C79.4853 82.5865 79.9285 82.1865 80.4176 81.6974ZM38.1091 39.5787C34.2122 46.0735 32.9095 52.8764 35.492 59.5907C43.2077 79.6515 61.3686 98.1551 81.384 101.157C91.4599 102.669 97.7428 101.059 101.48 97.3211C103.478 95.3233 104.725 92.8483 105.576 89.5933C101.178 86.9576 95.6926 83.4424 93.442 82.0099C92.4944 83.3059 91.4968 84.5965 90.4761 85.8214C89.5169 86.9724 88.5763 88.0176 87.657 88.9368C84.8026 91.7912 82.3561 93.4222 79.3449 93.4222C75.5812 93.4222 67.0622 88.244 59.297 81.8592C49.5958 73.8827 43.5117 66.1007 43.5117 58.8688C43.5117 57.5111 44.051 56.2091 45.011 55.2491C48.9358 51.3244 49.9105 49.6998 49.9105 48.6307C49.6914 48.3527 49.4438 47.7274 49.1161 46.9746C48.4671 45.4835 47.5456 43.587 46.4886 41.5542C45.5109 39.6741 44.4704 37.7809 43.5912 36.2765C43.3775 35.9108 43.1777 35.5756 42.9958 35.2774C42.8959 35.2821 42.7914 35.288 42.6831 35.2952C42.167 35.3296 41.5983 35.3906 41.009 35.4713C39.9491 36.7659 38.9968 38.0991 38.1091 39.5787Z" fill="#80D25B"/>
</svg>
